<svg width="172" height="35" viewBox="0 0 172 35" fill="none" xmlns="http://www.w3.org/2000/svg">
<path d="M99.1112 8.779L105.102 16.4879V8.71765H106.411V18.6144H105.191L99.1998 10.9056V18.6758H97.9048V8.779H99.118H99.1112Z" fill="white"/>
<path d="M99.5406 19.0165H97.564V8.43816H99.2816L104.768 15.4927V8.37H106.759V18.9484H105.027L99.5406 11.887V19.0097V19.0165ZM98.2456 18.3349H98.859V9.9104L105.361 18.2736H106.077V9.05841H105.45V17.4829L98.9476 9.11975H98.2456V18.3349Z" fill="white"/>
<path d="M114.829 16.2288H110.071L109.083 18.6757H107.726L111.802 8.77893H113.172L117.235 18.6757H115.81L114.822 16.2288H114.829ZM114.372 15.0769L112.457 10.2921L110.528 15.0769H114.372Z" fill="white"/>
<path d="M117.753 19.0165H115.592L114.604 16.5696H110.303L109.315 19.0165H107.215L111.571 8.43811H113.397L117.746 19.0165H117.753ZM116.049 18.3349H116.73L112.948 9.11971H112.034L108.238 18.3349H108.858L109.846 15.888H115.061L116.049 18.3349ZM114.876 15.4177H110.024L112.457 9.37871L114.876 15.4177ZM111.039 14.7361H113.875L112.464 11.2054L111.039 14.7361Z" fill="white"/>
<path d="M119.702 8.77893L123.519 15.4995L127.336 8.77893H128.474V18.6757H127.179V11.369L123.989 17.0058H123.049L119.859 11.369V18.6757H118.564V8.77893H119.702Z" fill="white"/>
<path d="M128.815 19.0165H126.839V12.664L124.187 17.3466H122.851L120.2 12.664V19.0165H118.223V8.43811H119.9L123.519 14.811L127.138 8.43811H128.815V19.0165ZM127.513 18.3349H128.127V9.11971H127.527L123.512 16.1947L119.498 9.11971H118.898V18.3349H119.511V10.0739L123.24 16.665H123.778L127.507 10.0739V18.3349H127.513Z" fill="white"/>
<path d="M134.097 8.77893C137.505 8.77893 139.482 10.7828 139.482 13.7341C139.482 16.6855 137.505 18.6757 134.097 18.6757H130.587V8.77893H134.097ZM138.173 13.7341C138.173 11.3213 136.64 9.93765 134.131 9.93765H131.882V17.5034H134.131C136.64 17.5034 138.173 16.147 138.173 13.7341Z" fill="white"/>
<path d="M134.097 19.0165H130.246V8.43811H134.097C137.58 8.43811 139.823 10.517 139.823 13.7341C139.823 16.9513 137.574 19.0165 134.097 19.0165ZM130.928 18.3349H134.097C137.212 18.3349 139.141 16.5696 139.141 13.7341C139.141 10.8987 137.205 9.11971 134.097 9.11971H130.928V18.3349ZM134.131 17.8441H131.541V9.59682H134.131C136.878 9.59682 138.514 11.144 138.514 13.7341C138.514 16.3242 136.878 17.8441 134.131 17.8441ZM132.223 17.1626H134.131C136.483 17.1626 137.833 15.9152 137.833 13.7341C137.833 11.553 136.483 10.2784 134.131 10.2784H132.223V17.1626Z" fill="white"/>
<path d="M140.757 13.7205C140.757 10.7283 142.972 8.54041 145.971 8.54041C148.97 8.54041 151.199 10.7283 151.199 13.7205C151.199 16.7128 148.984 18.9007 145.985 18.9007C142.986 18.9007 140.757 16.7128 140.757 13.7205ZM149.897 13.7205C149.897 11.3827 148.227 9.72638 145.964 9.72638C143.701 9.72638 142.045 11.3827 142.045 13.7205C142.045 16.0584 143.715 17.7147 145.978 17.7147C148.241 17.7147 149.897 16.0448 149.897 13.7205Z" fill="white"/>
<path d="M145.978 19.2346C142.802 19.2346 140.409 16.8627 140.409 13.7137C140.409 10.5647 142.747 8.19275 145.964 8.19275C149.181 8.19275 151.533 10.5647 151.533 13.7137C151.533 16.8627 149.195 19.2346 145.978 19.2346ZM145.971 8.88116C143.149 8.88116 141.098 10.9123 141.098 13.7205C141.098 16.5287 143.149 18.5598 145.985 18.5598C148.82 18.5598 150.858 16.5287 150.858 13.7205C150.858 10.9123 148.806 8.88116 145.971 8.88116ZM145.978 18.0486C143.504 18.0486 141.711 16.2288 141.711 13.7137C141.711 11.1986 143.504 9.37873 145.971 9.37873C148.438 9.37873 150.238 11.1986 150.238 13.7137C150.238 16.2288 148.445 18.0486 145.978 18.0486ZM145.971 10.0671C143.899 10.0671 142.393 11.6007 142.393 13.7205C142.393 15.8403 143.899 17.3739 145.978 17.3739C148.057 17.3739 149.556 15.8403 149.556 13.7205C149.556 11.6007 148.05 10.0671 145.971 10.0671Z" fill="white"/>
<path d="M106.247 23.1334V33.0302H104.952V28.5589H99.2064V33.0302H97.9114V23.1334H99.2064V27.373H104.952V23.1334H106.247Z" fill="white"/>
<path d="M106.588 33.371H104.611V28.8997H99.5472V33.371H97.5706V22.7926H99.5472V27.0321H104.611V22.7926H106.588V33.371ZM105.286 32.6894H105.9V23.4742H105.286V27.7137H98.8588V23.4742H98.2453V32.6894H98.8588V28.2181H105.286V32.6894Z" fill="white"/>
<path d="M109.669 33.0302H108.374V23.1334H109.669V33.0302Z" fill="white"/>
<path d="M110.01 33.371H108.033V22.7926H110.01V33.371ZM108.708 32.6894H109.321V23.4742H108.708V32.6894Z" fill="white"/>
<path d="M111.332 28.075C111.332 25.0828 113.493 22.8949 116.526 22.8949C119.048 22.8949 120.936 24.3671 121.454 26.2552H120.043C119.634 25.0078 118.237 24.0809 116.546 24.0809C114.263 24.0809 112.627 25.7508 112.627 28.075C112.627 30.3993 114.256 32.0896 116.567 32.0896C118.591 32.0896 120.104 30.7537 120.247 28.9611H116.308V27.8365H121.631V28.2795C121.631 31.1967 119.409 33.2484 116.512 33.2484C113.615 33.2484 111.318 31.0604 111.318 28.0682L111.332 28.075Z" fill="white"/>
<path d="M116.526 33.5959C113.322 33.5959 110.998 31.2717 110.998 28.075C110.998 24.8783 113.322 22.5541 116.526 22.5541C119.082 22.5541 121.195 24.0059 121.788 26.1665L121.904 26.5959H119.804L119.729 26.3642C119.354 25.2191 118.053 24.4217 116.553 24.4217C114.447 24.4217 112.975 25.9212 112.975 28.075C112.975 30.2289 114.454 31.7488 116.574 31.7488C118.237 31.7488 119.566 30.7401 119.866 29.3019H115.974V27.4957H121.979V28.2795C121.979 31.3058 119.634 33.5891 116.519 33.5891L116.526 33.5959ZM116.526 23.2357C113.718 23.2357 111.68 25.2668 111.68 28.075C111.68 30.8832 113.718 32.9144 116.526 32.9144C119.334 32.9144 121.304 30.9718 121.304 28.2863V28.1841H116.662V28.6271H120.636L120.609 28.9952C120.445 30.9854 118.755 32.4372 116.587 32.4372C114.106 32.4372 112.307 30.6037 112.307 28.0818C112.307 25.5599 114.099 23.7469 116.567 23.7469C118.25 23.7469 119.75 24.6261 120.302 25.9212H120.997C120.336 24.299 118.605 23.2425 116.539 23.2425L116.526 23.2357Z" fill="white"/>
<path d="M131.637 23.1334V33.0302H130.342V28.5589H124.596V33.0302H123.301V23.1334H124.596V27.373H130.342V23.1334H131.637Z" fill="white"/>
<path d="M131.977 33.371H130.001V28.8997H124.937V33.371H122.96V22.7926H124.937V27.0321H130.001V22.7926H131.977V33.371ZM130.676 32.6894H131.289V23.4742H130.676V27.7137H124.248V23.4742H123.635V32.6894H124.248V28.2181H130.676V32.6894Z" fill="white"/>
<path d="M138.023 24.2921V33.0302H136.728V24.2921H133.17V23.1334H141.575V24.2921H138.03H138.023Z" fill="white"/>
<path d="M138.364 33.371H136.388V24.6329H132.83V22.7926H141.915V24.6329H138.371V33.371H138.364ZM137.069 32.6894H137.683V23.9513H141.227V23.4742H133.504V23.9513H137.062V32.6894H137.069Z" fill="white"/>
<path d="M150.135 23.1334V24.2853H144.403V27.4002H149.706V28.5521H144.403V31.8919H150.251V33.0438H143.108V23.1471H150.142L150.135 23.1334Z" fill="white"/>
<path d="M150.585 33.371H142.76V22.7926H150.476V24.6261H144.744V27.0594H150.047V28.8929H144.744V31.5511H150.592V33.3846L150.585 33.371ZM143.442 32.6894H149.904V32.2191H144.056V28.1977H149.358V27.7274H144.056V23.9309H149.788V23.4606H143.435V32.6758L143.442 32.6894Z" fill="white"/>
<path d="M151.328 28.075C151.328 25.0828 153.529 22.8949 156.515 22.8949C159.071 22.8949 160.843 24.3808 161.361 26.4528H160.039C159.616 25.0556 158.348 24.0945 156.542 24.0945C154.266 24.0945 152.623 25.7508 152.623 28.075C152.623 30.3993 154.279 32.0556 156.542 32.0556C158.396 32.0556 159.78 30.965 160.141 29.5609H161.463C161.034 31.6262 159.139 33.2552 156.522 33.2552C153.529 33.2552 151.335 31.0672 151.335 28.075H151.328Z" fill="white"/>
<path d="M156.522 33.5959C153.318 33.5959 150.994 31.2717 150.994 28.075C150.994 24.8783 153.318 22.5541 156.522 22.5541C159.125 22.5541 161.109 24.0195 161.695 26.371L161.804 26.7936H159.793L159.718 26.5482C159.323 25.2191 158.137 24.4285 156.549 24.4285C154.443 24.4285 152.971 25.928 152.971 28.0682C152.971 30.2084 154.477 31.7079 156.549 31.7079C158.164 31.7079 159.473 30.8082 159.814 29.4655L159.882 29.2065H161.886L161.797 29.6154C161.306 31.9533 159.139 33.5823 156.522 33.5823V33.5959ZM156.522 23.2357C153.713 23.2357 151.675 25.2668 151.675 28.075C151.675 30.8832 153.713 32.9144 156.522 32.9144C158.689 32.9144 160.448 31.7216 161.02 29.9017H160.393C159.882 31.408 158.369 32.3963 156.542 32.3963C154.075 32.3963 152.282 30.5765 152.282 28.075C152.282 25.5736 154.075 23.7537 156.542 23.7537C158.321 23.7537 159.732 24.6534 160.284 26.112H160.904C160.27 24.3262 158.628 23.2357 156.515 23.2357H156.522Z" fill="white"/>
<path d="M171.456 23.1334V33.0302H170.161V28.5589H164.415V33.0302H163.12V23.1334H164.415V27.373H170.161V23.1334H171.456Z" fill="white"/>
<path d="M171.796 33.371H169.82V28.8997H164.755V33.371H162.779V22.7926H164.755V27.0321H169.82V22.7926H171.796V33.371ZM170.501 32.6894H171.115V23.4742H170.501V27.7137H164.074V23.4742H163.46V32.6894H164.074V28.2181H170.501V32.6894Z" fill="white"/>
<path d="M61.0371 17.4421H76.7547L79.0449 13.1276H63.3205L61.0371 17.4421Z" fill="white"/>
<path d="M57.9563 23.2629H73.6739L75.9573 18.9484H60.2396L57.9563 23.2629Z" fill="white"/>
<path d="M54.8755 29.077H70.5999L72.8696 24.7693H57.1657L54.8755 29.077Z" fill="white"/>
<path d="M51.8013 34.8909H67.5121L69.7954 30.5833H54.0846L51.8013 34.8909Z" fill="white"/>
<path d="M47.5209 4.4372H83.6728L86.0448 0H43.7653L31.8306 22.8539L29.6154 0H23.481L7.5112 30.5833H2.35151L0 34.9864L10.7283 35V34.9864H11.3077L24.9464 8.89484L27.3525 34.9864H42.7634C46.7984 34.9864 50.5063 32.7644 52.4012 29.2064L59.8033 15.3359C61.6027 11.962 60.4031 10.9873 60.4031 10.9873H80.1762L82.4664 6.7001H64.4177V6.68647L48.7683 6.7001L46.444 11.0828H52.7011C54.2279 11.0828 55.1889 12.739 54.4255 14.0613L47.6504 26.6845C46.3622 29.0837 43.8676 30.5764 41.148 30.5764H33.48L33.555 30.4401L47.5209 4.4372Z" fill="white"/>
</svg>
