<svg width="22" height="24" viewBox="0 0 22 24" fill="none" xmlns="http://www.w3.org/2000/svg">
<path d="M16.9799 22.9506C13.95 23.3951 9.53341 20.728 5.73311 16.1347C1.21384 10.6524 -0.224106 5.31827 2.08688 2.94754L2.39502 2.65119L4.03839 1.41644C4.29516 1.21887 4.65465 1.0707 4.96278 1.02131C5.68176 0.922533 6.40073 1.16948 6.86293 1.71278C6.86293 1.76217 8.91714 5.1701 8.91714 5.1701C9.53341 6.15791 9.4307 7.1951 8.55766 7.83718L7.32513 8.77559C6.76022 9.22011 6.60615 9.7634 6.91429 10.603C7.17106 11.3933 7.83868 12.3317 8.91714 13.6652C10.047 14.9988 11.639 16.7274 12.9229 16.5793C13.1796 16.5793 13.3851 16.4311 13.5905 16.2829L14.823 15.3445C15.1311 15.0976 15.4393 14.9988 15.7474 14.9494C16.1582 14.9 16.8772 14.9494 17.5962 15.6408L20.5748 18.3573C20.9343 18.7524 21.037 19.2463 20.9856 19.7896C20.9343 20.2835 20.6775 20.7774 20.2667 21.0738L18.3152 22.5555C17.9043 22.7531 17.4421 22.9012 16.9286 23" stroke="#242526" stroke-width="2"/>
</svg>
