<svg width="80" height="82" viewBox="0 0 80 82" fill="none" xmlns="http://www.w3.org/2000/svg">
<g filter="url(#filter0_d_10_251)">
<circle cx="40" cy="39.5" r="37.5" fill="#F8F8F8"/>
</g>
<path d="M38.5 52C38.5 52.8284 39.1716 53.5 40 53.5C40.8284 53.5 41.5 52.8284 41.5 52L40 52L38.5 52ZM41.0607 25.9393C40.4749 25.3536 39.5251 25.3536 38.9393 25.9393L29.3934 35.4853C28.8076 36.0711 28.8076 37.0208 29.3934 37.6066C29.9792 38.1924 30.9289 38.1924 31.5147 37.6066L40 29.1213L48.4853 37.6066C49.0711 38.1924 50.0208 38.1924 50.6066 37.6066C51.1924 37.0208 51.1924 36.0711 50.6066 35.4853L41.0607 25.9393ZM40 52L41.5 52L41.5 27L40 27L38.5 27L38.5 52L40 52Z" fill="#242526"/>
<defs>
<filter id="filter0_d_10_251" x="0.5" y="0" width="79" height="79" filterUnits="userSpaceOnUse" color-interpolation-filters="sRGB">
<feFlood flood-opacity="0" result="BackgroundImageFix"/>
<feColorMatrix in="SourceAlpha" type="matrix" values="0 0 0 0 0 0 0 0 0 0 0 0 0 0 0 0 0 0 127 0" result="hardAlpha"/>
<feOffset/>
<feGaussianBlur stdDeviation="1"/>
<feComposite in2="hardAlpha" operator="out"/>
<feColorMatrix type="matrix" values="0 0 0 0 0 0 0 0 0 0 0 0 0 0 0 0 0 0 0.25 0"/>
<feBlend mode="normal" in2="BackgroundImageFix" result="effect1_dropShadow_10_251"/>
<feBlend mode="normal" in="SourceGraphic" in2="effect1_dropShadow_10_251" result="shape"/>
</filter>
</defs>
</svg>
